<?xml version="1.0" standalone="no"?>
<!DOCTYPE svg PUBLIC "-//W3C//DTD SVG 20010904//EN"
 "http://www.w3.org/TR/2001/REC-SVG-20010904/DTD/svg10.dtd">
<svg version="1.0" xmlns="http://www.w3.org/2000/svg"
 width="260.000000pt" height="260.000000pt" viewBox="0 0 260.000000 260.000000"
 preserveAspectRatio="xMidYMid meet">
<metadata>
Created by potrace 1.11, written by Peter Selinger 2001-2013
</metadata>
<g transform="translate(0.000000,260.000000) scale(0.100000,-0.100000)"
fill="#000000" stroke="none">
<path d="M1276 2363 c-4 -4 -23 -8 -44 -9 -280 -21 -511 -123 -703 -314 -193
-191 -288 -405 -314 -704 -2 -17 -4 -31 -5 -31 -1 0 -3 -8 -5 -18 -2 -9 0 -15
4 -13 4 3 7 -16 7 -42 3 -267 127 -556 324 -752 168 -169 355 -265 597 -309
319 -57 655 49 881 280 74 76 143 167 174 229 13 25 28 52 35 60 23 30 92 258
106 355 19 125 16 292 -8 410 -41 199 -157 386 -310 496 -91 66 -171 99 -305
126 -29 6 -193 6 -230 0 -86 -13 -210 -79 -278 -147 -59 -59 -135 -221 -117
-250 3 -5 1 -11 -4 -14 -9 -6 -7 -142 2 -182 10 -41 47 -104 90 -152 96 -108
117 -220 55 -287 -79 -83 -207 -29 -210 89 l-1 45 -28 -15 c-60 -30 -79 -122
-40 -191 66 -115 245 -131 339 -30 55 58 62 167 17 264 -19 43 -21 51 -7 43
62 -34 206 -46 278 -22 177 58 269 271 188 436 -65 133 -209 185 -339 121 -76
-37 -110 -90 -114 -177 -3 -67 23 -124 69 -151 31 -19 70 -22 70 -7 0 6 -4 10
-10 10 -5 0 -17 11 -26 25 -13 20 -14 30 -5 53 17 40 46 55 92 47 40 -7 98
-53 100 -81 1 -8 2 -24 3 -36 3 -38 -23 -101 -56 -135 -72 -74 -189 -73 -305
4 -71 47 -112 127 -117 228 -5 113 20 184 95 269 109 123 265 167 428 121 274
-80 405 -328 396 -750 -3 -151 -10 -212 -36 -309 -6 -23 -13 -49 -14 -58 -7
-35 -73 -175 -110 -232 -40 -64 -127 -155 -188 -200 -61 -45 -176 -93 -258
-109 -73 -13 -192 -15 -254 -3 -16 3 -43 8 -60 11 -39 8 -203 87 -235 114
-188 161 -286 349 -327 626 -10 66 -9 294 1 370 40 313 196 590 400 714 70 42
163 80 216 87 23 3 49 7 58 9 9 2 29 4 45 4 23 1 27 5 27 32 0 30 -22 64 -34
52z"/>
</g>
</svg>
